<mxfile host="app.diagrams.net" modified="2024-01-31T18:01:48.685Z" agent="Mozilla/5.0 (Windows NT 10.0; Win64; x64) AppleWebKit/537.36 (KHTML, like Gecko) Chrome/121.0.0.0 Safari/537.36" etag="Ed96Bw6o1dEthq001rMJ" version="23.1.0" type="github">
  <diagram name="Page-1" id="pi0pTZiEYajHm_mTAxj8">
    <mxGraphModel dx="1434" dy="772" grid="1" gridSize="10" guides="1" tooltips="1" connect="1" arrows="1" fold="1" page="1" pageScale="1" pageWidth="850" pageHeight="1100" math="0" shadow="0">
      <root>
        <mxCell id="0" />
        <mxCell id="1" parent="0" />
        <mxCell id="2xLUAQMiTO7yyqPa4RsB-1" style="edgeStyle=orthogonalEdgeStyle;rounded=0;orthogonalLoop=1;jettySize=auto;html=1;shadow=0;" edge="1" parent="1" source="3tHD1LUF8SEcb3xLerfo-1" target="3tHD1LUF8SEcb3xLerfo-2">
          <mxGeometry relative="1" as="geometry" />
        </mxCell>
        <mxCell id="3tHD1LUF8SEcb3xLerfo-1" value="Usuário clicou no botão verificar na tela de acerto" style="ellipse;whiteSpace=wrap;html=1;aspect=fixed;fillColor=#ffe6cc;strokeColor=#d79b00;" parent="1" vertex="1">
          <mxGeometry x="105" y="10" width="110" height="110" as="geometry" />
        </mxCell>
        <mxCell id="3tHD1LUF8SEcb3xLerfo-7" style="edgeStyle=orthogonalEdgeStyle;rounded=0;orthogonalLoop=1;jettySize=auto;html=1;entryX=0.5;entryY=0;entryDx=0;entryDy=0;shadow=0;" parent="1" source="3tHD1LUF8SEcb3xLerfo-2" target="3tHD1LUF8SEcb3xLerfo-3" edge="1">
          <mxGeometry relative="1" as="geometry" />
        </mxCell>
        <mxCell id="3tHD1LUF8SEcb3xLerfo-2" value="gerenciar pendencias" style="rounded=1;whiteSpace=wrap;html=1;fillColor=#d5e8d4;strokeColor=#82b366;shadow=0;" parent="1" vertex="1">
          <mxGeometry x="80" y="160" width="160" height="40" as="geometry" />
        </mxCell>
        <mxCell id="deAI5rva0JdoIq1QQteX-1" value="não" style="edgeStyle=orthogonalEdgeStyle;rounded=0;orthogonalLoop=1;jettySize=auto;html=1;verticalAlign=middle;entryX=0.5;entryY=0;entryDx=0;entryDy=0;shadow=0;" parent="1" source="3tHD1LUF8SEcb3xLerfo-3" target="deAI5rva0JdoIq1QQteX-2" edge="1">
          <mxGeometry relative="1" as="geometry">
            <mxPoint x="160" y="540" as="targetPoint" />
          </mxGeometry>
        </mxCell>
        <mxCell id="2xLUAQMiTO7yyqPa4RsB-3" value="sim" style="edgeStyle=orthogonalEdgeStyle;rounded=0;orthogonalLoop=1;jettySize=auto;html=1;entryX=0;entryY=0.5;entryDx=0;entryDy=0;shadow=0;" edge="1" parent="1" source="3tHD1LUF8SEcb3xLerfo-3" target="deAI5rva0JdoIq1QQteX-11">
          <mxGeometry relative="1" as="geometry" />
        </mxCell>
        <mxCell id="3tHD1LUF8SEcb3xLerfo-3" value="é tela do gestor e alterouSomenteUsuVer&lt;br&gt;e não tem pendência&lt;br&gt;no dia" style="rhombus;whiteSpace=wrap;html=1;fillColor=#fff2cc;strokeColor=#d6b656;shadow=0;" parent="1" vertex="1">
          <mxGeometry x="80" y="240" width="160" height="160" as="geometry" />
        </mxCell>
        <mxCell id="2xLUAQMiTO7yyqPa4RsB-5" style="edgeStyle=orthogonalEdgeStyle;rounded=0;orthogonalLoop=1;jettySize=auto;html=1;entryX=0.5;entryY=0;entryDx=0;entryDy=0;shadow=0;" edge="1" parent="1" source="deAI5rva0JdoIq1QQteX-2" target="2xLUAQMiTO7yyqPa4RsB-4">
          <mxGeometry relative="1" as="geometry" />
        </mxCell>
        <mxCell id="deAI5rva0JdoIq1QQteX-2" value="gerencia as pendências pelo processo do acerto" style="rounded=1;whiteSpace=wrap;html=1;fillColor=#d5e8d4;strokeColor=#82b366;shadow=0;" parent="1" vertex="1">
          <mxGeometry x="75" y="440" width="170" height="40" as="geometry" />
        </mxCell>
        <mxCell id="deAI5rva0JdoIq1QQteX-11" value="não faz nada, termina a rotina" style="rounded=1;whiteSpace=wrap;html=1;fillColor=#d5e8d4;strokeColor=#82b366;shadow=0;" parent="1" vertex="1">
          <mxGeometry x="320" y="300" width="160" height="40" as="geometry" />
        </mxCell>
        <mxCell id="2xLUAQMiTO7yyqPa4RsB-8" value="sim" style="edgeStyle=orthogonalEdgeStyle;rounded=0;orthogonalLoop=1;jettySize=auto;html=1;entryX=0;entryY=0.5;entryDx=0;entryDy=0;shadow=0;" edge="1" parent="1" source="2xLUAQMiTO7yyqPa4RsB-4" target="2xLUAQMiTO7yyqPa4RsB-7">
          <mxGeometry relative="1" as="geometry" />
        </mxCell>
        <mxCell id="2xLUAQMiTO7yyqPa4RsB-12" style="edgeStyle=orthogonalEdgeStyle;rounded=0;orthogonalLoop=1;jettySize=auto;html=1;entryX=0.5;entryY=0;entryDx=0;entryDy=0;shadow=0;" edge="1" parent="1" source="2xLUAQMiTO7yyqPa4RsB-4" target="2xLUAQMiTO7yyqPa4RsB-9">
          <mxGeometry relative="1" as="geometry" />
        </mxCell>
        <mxCell id="2xLUAQMiTO7yyqPa4RsB-4" value="tem pendência no dia" style="rhombus;whiteSpace=wrap;html=1;fillColor=#fff2cc;strokeColor=#d6b656;shadow=0;" vertex="1" parent="1">
          <mxGeometry x="80" y="520" width="160" height="160" as="geometry" />
        </mxCell>
        <mxCell id="2xLUAQMiTO7yyqPa4RsB-7" value="atualiza a pendência existente" style="rounded=1;whiteSpace=wrap;html=1;fillColor=#d5e8d4;strokeColor=#82b366;shadow=0;" vertex="1" parent="1">
          <mxGeometry x="320" y="580" width="160" height="40" as="geometry" />
        </mxCell>
        <mxCell id="2xLUAQMiTO7yyqPa4RsB-9" value="cria nova pendência" style="rounded=1;whiteSpace=wrap;html=1;fillColor=#d5e8d4;strokeColor=#82b366;shadow=0;" vertex="1" parent="1">
          <mxGeometry x="80" y="720" width="160" height="40" as="geometry" />
        </mxCell>
      </root>
    </mxGraphModel>
  </diagram>
</mxfile>
